<svg width="20" height="20" viewBox="0 0 20 20" fill="none" xmlns="http://www.w3.org/2000/svg">
<path d="M4.63623 11.0707L7.50703 14.101L17.0764 4" stroke="black" stroke-width="2" stroke-linecap="round" stroke-linejoin="round"/>
<mask id="path-2-inside-1" fill="white">
<path d="M19 10V17C19 17.5304 18.7893 18.0391 18.4142 18.4142C18.0391 18.7893 17.5304 19 17 19H3C2.46957 19 1.96086 18.7893 1.58579 18.4142C1.21071 18.0391 1 17.5304 1 17V3C1 2.46957 1.21071 1.96086 1.58579 1.58579C1.96086 1.21071 2.46957 1 3 1H14"/>
</mask>
<path d="M20 10C20 9.44771 19.5523 9 19 9C18.4477 9 18 9.44771 18 10H20ZM1 17H0H1ZM3 1V0V1ZM14 2C14.5523 2 15 1.55228 15 1C15 0.447715 14.5523 0 14 0V2ZM18 10V17H20V10H18ZM18 17C18 17.2652 17.8946 17.5196 17.7071 17.7071L19.1213 19.1213C19.6839 18.5587 20 17.7957 20 17H18ZM17.7071 17.7071C17.5196 17.8946 17.2652 18 17 18V20C17.7957 20 18.5587 19.6839 19.1213 19.1213L17.7071 17.7071ZM17 18H3V20H17V18ZM3 18C2.73478 18 2.48043 17.8946 2.29289 17.7071L0.87868 19.1213C1.44129 19.6839 2.20435 20 3 20V18ZM2.29289 17.7071C2.10536 17.5196 2 17.2652 2 17H0C0 17.7957 0.31607 18.5587 0.87868 19.1213L2.29289 17.7071ZM2 17V3H0V17H2ZM2 3C2 2.73478 2.10536 2.48043 2.29289 2.29289L0.87868 0.87868C0.31607 1.44129 0 2.20435 0 3H2ZM2.29289 2.29289C2.48043 2.10536 2.73478 2 3 2V0C2.20435 0 1.44129 0.31607 0.87868 0.87868L2.29289 2.29289ZM3 2H14V0H3V2Z" fill="black" mask="url(#path-2-inside-1)"/>
</svg>
